<svg width="100" height="100" viewBox="0 0 100 100" fill="none" xmlns="http://www.w3.org/2000/svg">
<rect width="100" height="100" rx="20" fill="black"/>
<path d="M58.75 29.5833L70.4167 41.25M64.5833 23.75C65.3261 22.8722 66.245 22.1577 67.2813 21.652C68.3176 21.1463 69.4486 20.8606 70.6023 20.813C71.756 20.7654 72.907 20.9569 73.9819 21.3755C75.0569 21.7941 76.0323 22.4304 76.8459 23.244C77.6595 24.0576 78.2935 25.0306 78.7074 26.101C79.1213 27.1713 79.3062 28.3156 79.2501 29.4608C79.194 30.606 78.8983 31.727 78.3818 32.7525C77.8652 33.7779 77.1392 34.6853 76.25 35.4167L36.875 74.7917L20.8333 79.1667L25.2083 63.125L64.5833 23.75Z" stroke="#F5F5F5" stroke-width="7" stroke-linecap="round" stroke-linejoin="round"/>
</svg>
